<svg xmlns="http://www.w3.org/2000/svg" viewBox="0 0 20 20">
  <path fill="#000000" d="M3.5,9 C5.43299662,9 7,7.43299662 7,5.5 C7,3.56700338 5.43299662,2 3.5,2 C1.56700338,2 0,3.56700338 0,5.5 C0,7.43299662 1.56700338,9 3.5,9 Z M3.5,18 C5.43299662,18 7,16.4329966 7,14.5 C7,12.5670034 5.43299662,11 3.5,11 C1.56700338,11 0,12.5670034 0,14.5 C0,16.4329966 1.56700338,18 3.5,18 Z M19,4.02 L9,4.02 C8.45,4.02 8,4.47 8,5.02 L8,6.02 C8,6.57 8.45,7.02 9,7.02 L19,7.02 C19.55,7.02 20,6.57 20,6.02 L20,5.02 C20,4.46 19.55,4.02 19,4.02 Z M19,13.02 L9,13.02 C8.45,13.02 8,13.47 8,14.02 L8,15.02 C8,15.57 8.45,16.02 9,16.02 L19,16.02 C19.55,16.02 20,15.57 20,15.02 L20,14.02 C20,13.46 19.55,13.02 19,13.02 Z"/>
</svg>
