<?xml version="1.0" encoding="utf-8"?>
<!-- Generator: Adobe Illustrator 17.1.0, SVG Export Plug-In . SVG Version: 6.00 Build 0)  -->
<!DOCTYPE svg PUBLIC "-//W3C//DTD SVG 1.1//EN" "http://www.w3.org/Graphics/SVG/1.1/DTD/svg11.dtd">
<svg version="1.1" id="Layer_1" xmlns:sketch="http://www.bohemiancoding.com/sketch/ns"
	 xmlns="http://www.w3.org/2000/svg" xmlns:xlink="http://www.w3.org/1999/xlink" x="0px" y="0px" viewBox="0 0 20 20"
	 enable-background="new -1 -1 20 20" xml:space="preserve">
<title>Shape</title>
<desc>Created with Sketch.</desc>
<g id="Page-1" sketch:type="MSPage">
	<g id="Artboard-1" sketch:type="MSArtboardGroup">
		  <path fill="#000000" d="M5.85426796,6.45483203 L12.0226687,3.37063167 C12.0077053,3.24918566 12,3.12549267 12,3 C12,1.34314575 13.3431458,0 15,0 C16.6568542,0 18,1.34314575 18,3 C18,4.65685425 16.6568542,6 15,6 C14.1910876,6 13.456951,5.67984707 12.9173886,5.15933971 L7.41236023,7.91185387 C7.78510167,8.51967358 8,9.23474069 8,10 C8,10.7654627 7.78498741,11.4807066 7.41206295,12.0886308 L13.4992628,14.6974307 C14.111554,13.6803369 15.2263264,13 16.5,13 C18.4329966,13 20,14.5670034 20,16.5 C20,18.4329966 18.4329966,20 16.5,20 C14.6209485,20 13.0877474,18.5192385 13.0036352,16.6609541 L5.79935874,13.573407 C5.258479,13.8462985 4.64718895,14 4,14 C1.790861,14 0,12.209139 0,10 C0,7.790861 1.790861,6 4,6 C4.66918735,6 5.29999387,6.16432787 5.85426796,6.45483203 Z M15,4 C15.5522847,4 16,3.55228475 16,3 C16,2.44771525 15.5522847,2 15,2 C14.4477153,2 14,2.44771525 14,3 C14,3.55228475 14.4477153,4 15,4 Z M16.5,18 C17.3284271,18 18,17.3284271 18,16.5 C18,15.6715729 17.3284271,15 16.5,15 C15.6715729,15 15,15.6715729 15,16.5 C15,17.3284271 15.6715729,18 16.5,18 Z M4,12 C5.1045695,12 6,11.1045695 6,10 C6,8.8954305 5.1045695,8 4,8 C2.8954305,8 2,8.8954305 2,10 C2,11.1045695 2.8954305,12 4,12 Z"/>
	</g>
</g>
</svg>
